<svg width="16" height="16" viewBox="0 0 16 16" fill="none" xmlns="http://www.w3.org/2000/svg">
<path d="M8.66667 14H2.4C2.17909 14 2 13.8209 2 13.6V2.4C2 2.17909 2.17909 2 2.4 2H13.6C13.8209 2 14 2.17909 14 2.4V8.66667" stroke="#030712" stroke-linecap="round" stroke-linejoin="round"/>
<path d="M2 10.6665L6.66667 8.6665L10.3333 10.3332" stroke="#030712" stroke-linecap="round" stroke-linejoin="round"/>
<path d="M10.6667 6.66667C9.93029 6.66667 9.33333 6.06971 9.33333 5.33333C9.33333 4.59695 9.93029 4 10.6667 4C11.403 4 12 4.59695 12 5.33333C12 6.06971 11.403 6.66667 10.6667 6.66667Z" stroke="#030712" stroke-linecap="round" stroke-linejoin="round"/>
<path d="M10.6665 12.6665H12.6665M14.6665 12.6665H12.6665M12.6665 12.6665V10.6665M12.6665 12.6665V14.6665" stroke="#030712" stroke-linecap="round" stroke-linejoin="round"/>
</svg>
