<svg width="44" height="44" viewBox="0 0 44 44" fill="none" xmlns="http://www.w3.org/2000/svg">
<path d="M42.0316 32.4467L27.2657 5.30311C24.8933 1.30917 19.1101 1.30386 16.7345 5.30311L1.96932 32.4467C-0.455901 36.5278 2.48031 41.6958 7.23367 41.6958H36.766C41.5154 41.6958 44.4568 36.532 42.0316 32.4467ZM22.0001 36.7974C20.6499 36.7974 19.5509 35.6983 19.5509 34.3482C19.5509 32.998 20.6499 31.8989 22.0001 31.8989C23.3503 31.8989 24.4493 32.998 24.4493 34.3482C24.4493 35.6983 23.3503 36.7974 22.0001 36.7974ZM24.4493 27.0005C24.4493 28.3507 23.3503 29.4497 22.0001 29.4497C20.6499 29.4497 19.5509 28.3507 19.5509 27.0005V14.7544C19.5509 13.4042 20.6499 12.3052 22.0001 12.3052C23.3503 12.3052 24.4493 13.4042 24.4493 14.7544V27.0005Z" fill="#108F1E"/>
</svg>
