<svg width="52" height="52" viewBox="0 0 52 52" fill="none" xmlns="http://www.w3.org/2000/svg">
<rect width="52" height="52" rx="26" fill="#070707"/>
<mask id="mask0_3591_4573" style="mask-type:alpha" maskUnits="userSpaceOnUse" x="16" y="14" width="20" height="25">
<path d="M30.7729 14.012C30.7219 13.955 28.8844 14.0345 27.2854 15.77C25.6864 17.504 25.9324 19.493 25.9684 19.544C26.0044 19.595 28.2484 19.6745 29.6809 17.657C31.1134 15.6395 30.8239 14.0705 30.7729 14.012ZM35.7439 31.6115C35.6719 31.4675 32.2564 29.7605 32.5744 26.4785C32.8924 23.195 35.0869 22.295 35.1214 22.1975C35.1559 22.1 34.2259 21.0125 33.2404 20.462C32.5168 20.0739 31.716 19.8515 30.8959 19.811C30.7339 19.8065 30.1714 19.6685 29.0149 19.985C28.2529 20.1935 26.5354 20.8685 26.0629 20.8955C25.5889 20.9225 24.1789 20.1125 22.6624 19.898C21.6919 19.7105 20.6629 20.0945 19.9264 20.39C19.1914 20.684 17.7934 21.521 16.8154 23.7455C15.8374 25.9685 16.3489 29.4905 16.7149 30.5855C17.0809 31.679 17.6524 33.4715 18.6244 34.7795C19.4884 36.2555 20.6344 37.28 21.1129 37.628C21.5914 37.976 22.9414 38.207 23.8774 37.7285C24.6304 37.2665 25.9894 37.001 26.5264 37.0205C27.0619 37.04 28.1179 37.2515 29.1994 37.829C30.0559 38.1245 30.8659 38.0015 31.6774 37.6715C32.4889 37.34 33.6634 36.083 35.0344 33.5345C35.5549 32.3495 35.7919 31.709 35.7439 31.6115Z" fill="white"/>
<path d="M30.7729 14.012C30.7219 13.955 28.8844 14.0345 27.2854 15.77C25.6864 17.504 25.9324 19.493 25.9684 19.544C26.0044 19.595 28.2484 19.6745 29.6809 17.657C31.1134 15.6395 30.8239 14.0705 30.7729 14.012ZM35.7439 31.6115C35.6719 31.4675 32.2564 29.7605 32.5744 26.4785C32.8924 23.195 35.0869 22.295 35.1214 22.1975C35.1559 22.1 34.2259 21.0125 33.2404 20.462C32.5168 20.0739 31.716 19.8515 30.8959 19.811C30.7339 19.8065 30.1714 19.6685 29.0149 19.985C28.2529 20.1935 26.5354 20.8685 26.0629 20.8955C25.5889 20.9225 24.1789 20.1125 22.6624 19.898C21.6919 19.7105 20.6629 20.0945 19.9264 20.39C19.1914 20.684 17.7934 21.521 16.8154 23.7455C15.8374 25.9685 16.3489 29.4905 16.7149 30.5855C17.0809 31.679 17.6524 33.4715 18.6244 34.7795C19.4884 36.2555 20.6344 37.28 21.1129 37.628C21.5914 37.976 22.9414 38.207 23.8774 37.7285C24.6304 37.2665 25.9894 37.001 26.5264 37.0205C27.0619 37.04 28.1179 37.2515 29.1994 37.829C30.0559 38.1245 30.8659 38.0015 31.6774 37.6715C32.4889 37.34 33.6634 36.083 35.0344 33.5345C35.5549 32.3495 35.7919 31.709 35.7439 31.6115Z" fill="white"/>
</mask>
<g mask="url(#mask0_3591_4573)">
<rect x="14.0024" y="14" width="24" height="24" fill="#FAFAFA"/>
</g>
</svg>
