<svg width="16" height="16" viewBox="0 0 16 16" fill="none" xmlns="http://www.w3.org/2000/svg">
<g clip-path="url(#clip0_4423_3587)">
<path d="M14.2922 7.77449L8.16554 13.9012C7.41498 14.6517 6.39699 15.0734 5.33554 15.0734C4.27408 15.0734 3.2561 14.6517 2.50554 13.9012C1.75497 13.1506 1.33331 12.1326 1.33331 11.0712C1.33331 10.0097 1.75497 8.99172 2.50554 8.24116L8.6322 2.11449C9.13258 1.61412 9.81123 1.33301 10.5189 1.33301C11.2265 1.33301 11.9052 1.61412 12.4055 2.11449C12.9059 2.61487 13.187 3.29352 13.187 4.00116C13.187 4.70879 12.9059 5.38745 12.4055 5.88782L6.2722 12.0145C6.02202 12.2647 5.68269 12.4052 5.32887 12.4052C4.97505 12.4052 4.63573 12.2647 4.38554 12.0145C4.13535 11.7643 3.9948 11.425 3.9948 11.0712C3.9948 10.7173 4.13535 10.378 4.38554 10.1278L10.0455 4.47449" stroke="#108F1E" stroke-width="1.5" stroke-linecap="round" stroke-linejoin="round"/>
</g>
<defs>
<clipPath id="clip0_4423_3587">
<rect width="16" height="16" fill="white"/>
</clipPath>
</defs>
</svg>
