<svg width="24" height="24" viewBox="0 0 24 24" fill="none" xmlns="http://www.w3.org/2000/svg">
<path d="M18 8.6C18 7.11479 17.3679 5.69041 16.2426 4.6402C15.1174 3.59 13.5913 3 12 3C10.4087 3 8.88258 3.59 7.75736 4.6402C6.63214 5.69041 6 7.11479 6 8.6C6 12.6257 4.86099 14.8795 3.98663 16.0167C3.74141 16.3356 3.99771 17 4.4 17H19.6C20.0023 17 20.2586 16.3356 20.0134 16.0167C19.139 14.8795 18 12.6257 18 8.6Z" stroke="black" stroke-width="1.5" stroke-linecap="round" stroke-linejoin="round"/>
<path d="M13.73 20C13.5542 20.3031 13.3019 20.5547 12.9982 20.7295C12.6946 20.9044 12.3504 20.9965 12 20.9965C11.6496 20.9965 11.3054 20.9044 11.0018 20.7295C10.6982 20.5547 10.4458 20.3031 10.27 20" stroke="black" stroke-width="1.5" stroke-linecap="round" stroke-linejoin="round"/>
</svg>
