<svg width="16" height="16" viewBox="0 0 16 16" fill="none" xmlns="http://www.w3.org/2000/svg">
<path d="M0.666504 13.3333V12.6667C0.666504 10.0893 2.75584 8 5.33317 8C7.9105 8 9.99984 10.0893 9.99984 12.6667V13.3333" stroke="#108F1E" stroke-linecap="round"/>
<path d="M8.6665 9.33333C8.6665 7.49238 10.1589 6 11.9998 6C13.8408 6 15.3332 7.49239 15.3332 9.33333V9.66667" stroke="#108F1E" stroke-linecap="round"/>
<path d="M5.33317 7.99984C6.80593 7.99984 7.99984 6.80593 7.99984 5.33317C7.99984 3.86041 6.80593 2.6665 5.33317 2.6665C3.86041 2.6665 2.6665 3.86041 2.6665 5.33317C2.6665 6.80593 3.86041 7.99984 5.33317 7.99984Z" stroke="#108F1E" stroke-linecap="round" stroke-linejoin="round"/>
<path d="M12 6C13.1046 6 14 5.10457 14 4C14 2.89543 13.1046 2 12 2C10.8954 2 10 2.89543 10 4C10 5.10457 10.8954 6 12 6Z" stroke="#108F1E" stroke-linecap="round" stroke-linejoin="round"/>
</svg>
