<svg width="44" height="44" viewBox="0 0 44 44" fill="none" xmlns="http://www.w3.org/2000/svg">
<path fill-rule="evenodd" clip-rule="evenodd" d="M34.9579 22.4138L34.3653 25.3728C34.2505 25.9477 34.0144 26.4915 33.6727 26.9678C33.331 27.4442 32.8916 27.8422 32.3839 28.1352L15.6116 37.8179C14.6642 38.3649 13.5383 38.5132 12.4816 38.23C11.4249 37.9469 10.5239 37.2556 9.97688 36.3082L3.32876 24.7926C2.78178 23.8451 2.63354 22.7192 2.91668 21.6625C3.19981 20.6058 3.89111 19.7048 4.83851 19.1578L21.6108 9.47507C22.1184 9.18205 22.6826 9.00057 23.2658 8.94272C23.8491 8.88487 24.438 8.95197 24.9933 9.13957L25.0978 9.17394C24.1585 10.5292 23.5585 12.0903 23.3484 13.7258C23.1383 15.3613 23.3242 17.0234 23.8905 18.5721C24.0273 18.8994 24.2852 19.1614 24.6104 19.3032C24.9356 19.445 25.3031 19.4557 25.636 19.3332C25.969 19.2106 26.2417 18.9642 26.3974 18.6453C26.553 18.3265 26.5795 17.9599 26.4714 17.6219C25.8617 15.9557 25.8598 14.1277 26.4661 12.4602C27.0723 10.7927 28.2477 9.39273 29.7851 8.50707C31.5135 7.51003 33.567 7.24006 35.4943 7.75651C37.4216 8.27295 39.065 9.53354 40.0633 11.2612C40.6611 12.2974 41.0033 13.4613 41.0615 14.6562C41.1198 15.8511 40.8923 17.0427 40.3981 18.1321C39.9038 19.2216 39.157 20.1775 38.2195 20.9207C37.282 21.6639 36.1809 22.1729 35.0074 22.4056L34.9579 22.4138ZM30.815 11.1072L33.3808 11.9748C34.3305 12.2958 35.1309 12.9518 35.6322 13.82C36.1335 14.6883 36.3015 15.7094 36.1046 16.6924L35.5725 19.3476C36.1712 19.0667 36.7051 18.6646 37.1404 18.1667C37.5756 17.6688 37.9027 17.086 38.101 16.4551C38.2993 15.8242 38.3644 15.159 38.2922 14.5016C38.2201 13.8443 38.0122 13.209 37.6818 12.6362C37.351 12.0635 36.9049 11.5657 36.3717 11.1744C35.8385 10.7831 35.2299 10.5068 34.5843 10.3631C33.9387 10.2193 33.2704 10.2112 32.6215 10.3393C31.9727 10.4674 31.3575 10.7289 30.815 11.1072Z" fill="#108F1E"/>
</svg>
