<svg width="24" height="24" viewBox="0 0 24 24" fill="none" xmlns="http://www.w3.org/2000/svg">
<path d="M9.12478 22.8954C8.84715 22.8959 8.57216 22.8416 8.31561 22.7354C8.05906 22.6293 7.82601 22.4736 7.62986 22.2771L1.64524 16.2925C1.25521 15.8992 1.03429 15.369 1.02962 14.8151C1.02494 14.2612 1.23688 13.7275 1.62022 13.3276L11.1714 3.48257C11.3689 3.27945 11.6049 3.11786 11.8657 3.00732C12.1265 2.89677 12.4067 2.8395 12.69 2.83887H16.1713C16.2648 2.83887 16.3544 2.87599 16.4204 2.94206C16.4865 3.00814 16.5236 3.09775 16.5236 3.19119C16.5236 3.28464 16.4865 3.37425 16.4204 3.44033C16.3544 3.5064 16.2648 3.54352 16.1713 3.54352H12.69C12.5011 3.5439 12.3142 3.58207 12.1403 3.65577C11.9664 3.72946 11.809 3.83721 11.6774 3.97265L2.12687 13.8181C1.8714 14.0846 1.73015 14.4404 1.73324 14.8095C1.73634 15.1787 1.88353 15.5321 2.14343 15.7943L8.12805 21.7789C8.39257 22.0428 8.75096 22.191 9.1246 22.191C9.49825 22.191 9.85663 22.0428 10.1212 21.7789L19.9863 11.9137C20.1176 11.7832 20.2217 11.6279 20.2925 11.4569C20.3634 11.2859 20.3997 11.1025 20.3992 10.9174V4.6005C20.3992 4.32017 20.2879 4.05132 20.0897 3.8531C19.8914 3.65488 19.6226 3.54352 19.3423 3.54352H17.2283C17.1349 3.54352 17.0452 3.5064 16.9792 3.44033C16.9131 3.37425 16.876 3.28464 16.876 3.19119C16.876 3.09775 16.9131 3.00814 16.9792 2.94206C17.0452 2.87599 17.1349 2.83887 17.2283 2.83887H19.3423C19.8093 2.83943 20.257 3.02521 20.5873 3.35546C20.9175 3.6857 21.1033 4.13346 21.1039 4.6005V10.9174C21.1047 11.1951 21.0504 11.4702 20.9441 11.7268C20.8379 11.9834 20.6818 12.2164 20.4848 12.4123L10.6197 22.2774C10.4235 22.4738 10.1905 22.6296 9.93391 22.7356C9.67736 22.8417 9.40238 22.896 9.12478 22.8954Z" fill="#108F1E" stroke="#108F1E"/>
<path d="M17.933 7.77131C17.466 7.77075 17.0182 7.58497 16.688 7.25473C16.3577 6.92448 16.1719 6.47672 16.1714 6.00968C16.1714 5.91624 16.2085 5.82662 16.2746 5.76055C16.3407 5.69447 16.4303 5.65735 16.5237 5.65735C16.6172 5.65735 16.7068 5.69447 16.7728 5.76055C16.8389 5.82662 16.876 5.91624 16.876 6.00968C16.876 6.25137 16.9588 6.48578 17.1107 6.67382C17.2625 6.86186 17.4742 6.99218 17.7105 7.04307C17.9468 7.09395 18.1933 7.06232 18.4091 6.95345C18.6249 6.84458 18.7969 6.66505 18.8963 6.44477C18.9958 6.22449 19.0168 5.97678 18.9558 5.74292C18.8947 5.50905 18.7554 5.30317 18.561 5.15957C18.3666 5.01597 18.1288 4.94334 17.8874 4.95378C17.6459 4.96422 17.4153 5.0571 17.234 5.21695C17.1639 5.2788 17.0721 5.31029 16.9788 5.30448C16.8855 5.29866 16.7984 5.25602 16.7365 5.18594C16.6747 5.11586 16.6432 5.02407 16.649 4.93078C16.6548 4.83748 16.6974 4.75031 16.7675 4.68846C16.9813 4.49993 17.2376 4.36609 17.5145 4.29842C17.7914 4.23075 18.0805 4.23127 18.3571 4.29993C18.6338 4.3686 18.8896 4.50336 19.1027 4.69265C19.3158 4.88194 19.4797 5.12011 19.5805 5.38671C19.6813 5.65332 19.7159 5.9404 19.6814 6.22332C19.6468 6.50624 19.5441 6.77654 19.3821 7.01104C19.2201 7.24554 19.0036 7.43722 18.7512 7.56964C18.4988 7.70206 18.218 7.77127 17.933 7.77131Z" fill="#108F1E" stroke="#108F1E"/>
<path d="M18.1095 5.6574C17.725 5.65736 17.3468 5.56054 17.0096 5.37587C16.6724 5.1912 16.3872 4.92463 16.1801 4.60071C15.9731 4.2768 15.8509 3.90597 15.8248 3.52241C15.7988 3.13886 15.8697 2.75492 16.0311 2.40599C16.1925 2.05706 16.4391 1.75437 16.7482 1.52581C17.0573 1.29726 17.419 1.1502 17.7999 1.0982C18.1808 1.04619 18.5687 1.09092 18.9278 1.22824C19.2868 1.36556 19.6056 1.59107 19.8546 1.88398C19.8846 1.91921 19.9075 1.96002 19.9218 2.00408C19.9361 2.04814 19.9416 2.09459 19.9379 2.14077C19.9343 2.18695 19.9216 2.23196 19.9005 2.27322C19.8795 2.31449 19.8505 2.35121 19.8153 2.38129C19.78 2.41136 19.7392 2.4342 19.6952 2.4485C19.6511 2.4628 19.6047 2.46829 19.5585 2.46464C19.5123 2.46099 19.4673 2.44828 19.426 2.42724C19.3848 2.4062 19.348 2.37723 19.318 2.342C19.1458 2.13889 18.9252 1.98242 18.6766 1.88703C18.428 1.79163 18.1593 1.7604 17.8955 1.79619C17.6316 1.83199 17.381 1.93367 17.1668 2.09185C16.9526 2.25003 16.7817 2.45962 16.6698 2.70127C16.5579 2.94292 16.5088 3.20885 16.5268 3.47452C16.5448 3.74019 16.6294 3.99705 16.7729 4.22139C16.9163 4.44573 17.114 4.63033 17.3476 4.75815C17.5812 4.88597 17.8432 4.95289 18.1095 4.95274C18.2029 4.95274 18.2925 4.98986 18.3586 5.05594C18.4247 5.12201 18.4618 5.21163 18.4618 5.30507C18.4618 5.39851 18.4247 5.48813 18.3586 5.5542C18.2925 5.62028 18.2029 5.6574 18.1095 5.6574Z" fill="#108F1E" stroke="#108F1E"/>
</svg>
