<svg width="8" height="16" viewBox="0 0 8 16" fill="none" xmlns="http://www.w3.org/2000/svg">
<path d="M4.12 12.0163C4.472 11.9843 4.78134 11.9096 5.048 11.7923C5.31467 11.6696 5.53867 11.515 5.72 11.3283C5.90667 11.1416 6.04534 10.9256 6.136 10.6803C6.232 10.4296 6.28 10.155 6.28 9.8563C6.28 9.58964 6.22934 9.3603 6.128 9.1683C6.032 8.9763 5.89867 8.81097 5.728 8.6723C5.55734 8.5283 5.35734 8.4083 5.128 8.3123C4.89867 8.21097 4.65334 8.11764 4.392 8.0323L4.12 12.0163ZM3.856 2.7683C3.50934 2.8003 3.208 2.86964 2.952 2.9763C2.70134 3.08297 2.49334 3.2163 2.328 3.3763C2.16267 3.5363 2.04 3.71764 1.96 3.9203C1.88 4.11764 1.84 4.32564 1.84 4.5443C1.84 4.8003 1.88534 5.0243 1.976 5.2163C2.06667 5.40297 2.192 5.5683 2.352 5.7123C2.512 5.8563 2.69867 5.98164 2.912 6.0883C3.12534 6.19497 3.35734 6.29097 3.608 6.3763L3.856 2.7683ZM4.488 6.6563C4.872 6.77897 5.25067 6.90964 5.624 7.0483C5.99734 7.18697 6.33334 7.36564 6.632 7.5843C6.93067 7.80297 7.17067 8.07764 7.352 8.4083C7.53867 8.73364 7.632 9.14164 7.632 9.6323C7.632 10.1123 7.552 10.563 7.392 10.9843C7.232 11.4056 6.99734 11.7763 6.688 12.0963C6.384 12.4163 6.008 12.6776 5.56 12.8803C5.11734 13.0776 4.61067 13.195 4.04 13.2323L3.944 14.6323C3.93867 14.7336 3.89867 14.8216 3.824 14.8963C3.74934 14.9763 3.656 15.0163 3.544 15.0163H3.016L3.136 13.2163C2.49067 13.1523 1.90134 12.9923 1.368 12.7363C0.840003 12.475 0.384003 12.1443 3.45707e-06 11.7443L0.432003 11.0883C0.47467 11.0296 0.528003 10.9816 0.592003 10.9443C0.656004 10.907 0.725337 10.8883 0.800004 10.8883C0.901337 10.8883 1.016 10.939 1.144 11.0403C1.272 11.1416 1.42934 11.2563 1.616 11.3843C1.808 11.5123 2.032 11.6376 2.288 11.7603C2.54934 11.883 2.86134 11.9656 3.224 12.0083L3.512 7.7603C3.13867 7.6483 2.77067 7.52297 2.408 7.3843C2.05067 7.24564 1.728 7.06164 1.44 6.8323C1.15734 6.60297 0.928003 6.31764 0.752003 5.9763C0.581337 5.63497 0.496004 5.20564 0.496004 4.6883C0.496004 4.29897 0.57067 3.9203 0.720003 3.5523C0.87467 3.17897 1.09867 2.8483 1.392 2.5603C1.68534 2.2723 2.04534 2.03764 2.472 1.8563C2.89867 1.66964 3.38667 1.56564 3.936 1.5443L4.016 0.392304C4.02134 0.290971 4.05867 0.200304 4.128 0.120304C4.20267 0.0403042 4.29867 0.000304222 4.416 0.000304222H4.944L4.84 1.5763C5.39467 1.64564 5.87467 1.78964 6.28 2.0083C6.69067 2.22697 7.05334 2.49364 7.368 2.8083L7.024 3.3363C6.91734 3.4963 6.79467 3.5763 6.656 3.5763C6.58134 3.5763 6.488 3.5443 6.376 3.4803C6.26934 3.41097 6.13867 3.33097 5.984 3.2403C5.83467 3.14964 5.656 3.06164 5.448 2.9763C5.24534 2.89097 5.01334 2.82697 4.752 2.7843L4.488 6.6563Z" fill="#4B5563"/>
</svg>
