<svg width="20" height="20" viewBox="0 0 20 20" fill="none" xmlns="http://www.w3.org/2000/svg">
<path d="M15.8333 16.6663H4.16667C3.24619 16.6663 2.5 15.9201 2.5 14.9997V7.49967C2.5 6.5792 3.24619 5.83301 4.16667 5.83301H15.8333C16.7538 5.83301 17.5 6.5792 17.5 7.49967V14.9997C17.5 15.9201 16.7538 16.6663 15.8333 16.6663Z" stroke="#108F1E" stroke-width="1.25"/>
<path d="M13.75 11.6663C13.5199 11.6663 13.3334 11.4798 13.3334 11.2497C13.3334 11.0196 13.5199 10.833 13.75 10.833C13.9801 10.833 14.1667 11.0196 14.1667 11.2497C14.1667 11.4798 13.9801 11.6663 13.75 11.6663Z" fill="#108F1E" stroke="#108F1E" stroke-width="1.25" stroke-linecap="round" stroke-linejoin="round"/>
<path d="M15 5.83333V4.66935C15 3.5743 13.962 2.77681 12.9039 3.05896L3.73723 5.50341C3.00764 5.69796 2.5 6.35871 2.5 7.1138V7.5" stroke="#108F1E" stroke-width="1.25"/>
</svg>
