<svg width="44" height="44" viewBox="0 0 44 44" fill="none" xmlns="http://www.w3.org/2000/svg">
<path d="M4.125 15.125V13.0625C4.127 11.4221 4.77954 9.84943 5.93949 8.68949C7.09943 7.52954 8.67209 6.877 10.3125 6.875H12.375V8.9375C12.375 9.66685 12.6647 10.3663 13.1805 10.882C13.6962 11.3978 14.3957 11.6875 15.125 11.6875C15.8543 11.6875 16.5538 11.3978 17.0695 10.882C17.5853 10.3663 17.875 9.66685 17.875 8.9375V6.875H26.125V8.9375C26.125 9.66685 26.4147 10.3663 26.9305 10.882C27.4462 11.3978 28.1457 11.6875 28.875 11.6875C29.6043 11.6875 30.3038 11.3978 30.8195 10.882C31.3353 10.3663 31.625 9.66685 31.625 8.9375V6.875H33.6875C35.3279 6.877 36.9006 7.52954 38.0605 8.68949C39.2205 9.84943 39.873 11.4221 39.875 13.0625V15.125H4.125ZM13.75 8.9375C13.75 9.30217 13.8949 9.65191 14.1527 9.90977C14.4106 10.1676 14.7603 10.3125 15.125 10.3125C15.4897 10.3125 15.8394 10.1676 16.0973 9.90977C16.3551 9.65191 16.5 9.30217 16.5 8.9375V5.5C16.5 5.13533 16.3551 4.78559 16.0973 4.52773C15.8394 4.26987 15.4897 4.125 15.125 4.125C14.7603 4.125 14.4106 4.26987 14.1527 4.52773C13.8949 4.78559 13.75 5.13533 13.75 5.5V8.9375ZM27.5 5.5V8.9375C27.5 9.30217 27.6449 9.65191 27.9027 9.90977C28.1606 10.1676 28.5103 10.3125 28.875 10.3125C29.2397 10.3125 29.5894 10.1676 29.8473 9.90977C30.1051 9.65191 30.25 9.30217 30.25 8.9375V5.5C30.25 5.13533 30.1051 4.78559 29.8473 4.52773C29.5894 4.26987 29.2397 4.125 28.875 4.125C28.5103 4.125 28.1606 4.26987 27.9027 4.52773C27.6449 4.78559 27.5 5.13533 27.5 5.5ZM39.875 16.5V30.9375C39.873 32.5779 39.2205 34.1506 38.0605 35.3105C36.9006 36.4705 35.3279 37.123 33.6875 37.125H10.3125C8.67209 37.123 7.09943 36.4705 5.93949 35.3105C4.77954 34.1506 4.127 32.5779 4.125 30.9375V16.5H39.875ZM27.0236 24.2749H24.1849L23.3063 21.5751C23.2158 21.3 23.0409 21.0605 22.8063 20.8907C22.5718 20.7209 22.2896 20.6295 22 20.6295C21.7104 20.6295 21.4282 20.7209 21.1937 20.8907C20.9591 21.0605 20.7842 21.3 20.6938 21.5751L19.8165 24.2749H16.9764C16.686 24.2749 16.4031 24.3668 16.1681 24.5374C15.9332 24.7081 15.7583 24.9487 15.6685 25.2249C15.5788 25.5011 15.5787 25.7986 15.6684 26.0747C15.7582 26.3509 15.933 26.5916 16.1679 26.7623L18.4649 28.4309L17.5876 31.1307C17.4979 31.4069 17.4978 31.7044 17.5876 31.9806C17.6773 32.2568 17.8522 32.4975 18.0871 32.6682C18.3221 32.8389 18.6051 32.9308 18.8955 32.9307C19.1859 32.9307 19.4688 32.8387 19.7037 32.6679L22 30.9994L24.2962 32.6679C24.5312 32.8387 24.8141 32.9307 25.1045 32.9307C25.3949 32.9308 25.6779 32.8389 25.9129 32.6682C26.1478 32.4975 26.3227 32.2568 26.4124 31.9806C26.5022 31.7044 26.5021 31.4069 26.4124 31.1307L25.5351 28.4309L27.8321 26.7623C28.067 26.5916 28.2418 26.3509 28.3316 26.0747C28.4213 25.7986 28.4212 25.5011 28.3315 25.2249C28.2417 24.9487 28.0668 24.7081 27.8319 24.5374C27.5969 24.3668 27.314 24.2749 27.0236 24.2749Z" fill="#108F1E"/>
</svg>
