<svg width="52" height="52" viewBox="0 0 52 52" fill="none" xmlns="http://www.w3.org/2000/svg">
<rect width="52" height="52" rx="26" fill="#FF616D"/>
<mask id="mask0_3591_4579" style="mask-type:alpha" maskUnits="userSpaceOnUse" x="15" y="14" width="22" height="23">
<path d="M36.567 23.937C36.7045 24.6734 36.7793 25.4433 36.7793 26.2467C36.7793 32.5311 32.5733 36.9998 26.2207 36.9998C24.776 37.0002 23.3454 36.716 22.0107 36.1633C20.6759 35.6107 19.4631 34.8004 18.4415 33.7789C17.42 32.7574 16.6098 31.5446 16.0571 30.2098C15.5045 28.875 15.2203 27.4444 15.2207 25.9998C15.2203 24.5551 15.5045 23.1245 16.0571 21.7897C16.6098 20.4549 17.42 19.2421 18.4415 18.2206C19.4631 17.1991 20.6759 16.3888 22.0107 15.8362C23.3454 15.2835 24.776 14.9993 26.2207 14.9998C29.1908 14.9998 31.6727 16.0926 33.5768 17.8671L30.4759 20.968V20.9601C29.3216 19.8606 27.8566 19.2963 26.2207 19.2963C22.5913 19.2963 19.6413 22.3625 19.6413 25.9931C19.6413 29.6225 22.5913 32.6954 26.2207 32.6954C29.5138 32.6954 31.7553 30.8125 32.2157 28.2268H26.2207V23.937H36.5681H36.567Z" fill="white"/>
</mask>
<g mask="url(#mask0_3591_4579)">
<rect x="14.0024" y="14" width="24" height="24" fill="#FAFAFA"/>
</g>
</svg>
