<svg width="16" height="16" viewBox="0 0 16 16" fill="none" xmlns="http://www.w3.org/2000/svg">
<g clip-path="url(#clip0_3854_4512)">
<mask id="mask0_3854_4512" style="mask-type:luminance" maskUnits="userSpaceOnUse" x="1" y="0" width="15" height="16">
<path d="M15.0293 0H1.33325V16H15.0293V0Z" fill="white"/>
</mask>
<g mask="url(#mask0_3854_4512)">
<path d="M10.1168 14.651C9.5869 13.5182 9.02242 12.4686 8.00738 11.6878C7.68098 11.4369 6.37538 10.7687 6.29218 10.1083C6.2141 9.4849 9.18114 8.34954 9.85314 7.34346C9.98242 7.15146 10.2397 6.48714 10.2487 6.22474C10.2858 5.17258 10.3293 4.1153 10.2487 3.06442C10.2384 2.94154 10.1079 2.81482 9.98498 2.80074C9.11074 2.70218 8.22626 2.75722 7.34818 2.73546C7.37037 3.21844 7.39256 3.701 7.41474 4.18314C7.89858 4.20532 8.382 4.22751 8.86498 4.2497C8.86498 5.36714 9.14914 5.89322 8.6013 6.68554C7.72578 7.94762 5.24258 7.78506 4.9085 9.45034C4.51682 11.4062 6.67618 12.1294 7.5453 13.467C8.11746 14.3451 8.07394 14.9326 8.07394 15.9681C6.10018 15.6404 5.48066 13.4977 4.2493 12.0846C3.07042 10.7303 1.99266 9.4593 1.54466 7.67242C-0.495656 -0.476063 12.888 -3.3279 14.9296 5.23658C15.1267 6.06218 15.0039 7.06698 14.7978 7.86954C14.6442 8.46858 14.273 9.2481 13.9402 9.7793C13.144 11.0516 11.9869 12.0577 11.105 13.2686C10.7722 13.7268 10.5175 14.2503 10.1168 14.651Z" fill="white"/>
</g>
</g>
<defs>
<clipPath id="clip0_3854_4512">
<rect width="13.696" height="16" fill="white" transform="translate(1.33325)"/>
</clipPath>
</defs>
</svg>
