<svg width="16" height="16" viewBox="0 0 16 16" fill="none" xmlns="http://www.w3.org/2000/svg">
<path d="M14.3333 14H1.66667C1.2248 13.9995 0.801186 13.8237 0.48874 13.5113C0.176294 13.1988 0.000529286 12.7752 0 12.3333L0 3.66667C0 2.748 0.748 2 1.66667 2H14.3333C15.252 2 16 2.748 16 3.66667V12.3333C16 13.252 15.252 14 14.3333 14ZM1.66667 2.66667C1.11533 2.66667 0.666667 3.11533 0.666667 3.66667V12.3333C0.666667 12.8847 1.11533 13.3333 1.66667 13.3333H14.3333C14.8847 13.3333 15.3333 12.8847 15.3333 12.3333V3.66667C15.3333 3.11533 14.8847 2.66667 14.3333 2.66667H1.66667Z" fill="#108F1E"/>
<path d="M5 7.99984C4.08133 7.99984 3.33333 7.25184 3.33333 6.33317C3.33333 5.4145 4.08133 4.6665 5 4.6665C5.91867 4.6665 6.66667 5.4145 6.66667 6.33317C6.66667 7.25184 5.91867 7.99984 5 7.99984ZM5 5.33317C4.44867 5.33317 4 5.78184 4 6.33317C4 6.8845 4.44867 7.33317 5 7.33317C5.55133 7.33317 6 6.8845 6 6.33317C6 5.78184 5.55133 5.33317 5 5.33317ZM7.66667 11.3332C7.57826 11.3332 7.49348 11.2981 7.43096 11.2355C7.36845 11.173 7.33333 11.0882 7.33333 10.9998V10.3332C7.33333 9.78184 6.88467 9.33317 6.33333 9.33317H3.66667C3.11533 9.33317 2.66667 9.78184 2.66667 10.3332V10.9998C2.66667 11.0882 2.63155 11.173 2.56904 11.2355C2.50652 11.2981 2.42174 11.3332 2.33333 11.3332C2.24493 11.3332 2.16014 11.2981 2.09763 11.2355C2.03512 11.173 2 11.0882 2 10.9998V10.3332C2 9.4145 2.748 8.6665 3.66667 8.6665H6.33333C7.252 8.6665 8 9.4145 8 10.3332V10.9998C8 11.0882 7.96488 11.173 7.90237 11.2355C7.83986 11.2981 7.75507 11.3332 7.66667 11.3332ZM13.6667 5.99984H9.66667C9.57826 5.99984 9.49348 5.96472 9.43096 5.90221C9.36845 5.83969 9.33333 5.75491 9.33333 5.6665C9.33333 5.5781 9.36845 5.49331 9.43096 5.4308C9.49348 5.36829 9.57826 5.33317 9.66667 5.33317H13.6667C13.7551 5.33317 13.8399 5.36829 13.9024 5.4308C13.9649 5.49331 14 5.5781 14 5.6665C14 5.75491 13.9649 5.83969 13.9024 5.90221C13.8399 5.96472 13.7551 5.99984 13.6667 5.99984ZM13.6667 8.6665H9.66667C9.57826 8.6665 9.49348 8.63139 9.43096 8.56887C9.36845 8.50636 9.33333 8.42158 9.33333 8.33317C9.33333 8.24477 9.36845 8.15998 9.43096 8.09747C9.49348 8.03496 9.57826 7.99984 9.66667 7.99984H13.6667C13.7551 7.99984 13.8399 8.03496 13.9024 8.09747C13.9649 8.15998 14 8.24477 14 8.33317C14 8.42158 13.9649 8.50636 13.9024 8.56887C13.8399 8.63139 13.7551 8.6665 13.6667 8.6665ZM13.6667 11.3332H9.66667C9.57826 11.3332 9.49348 11.2981 9.43096 11.2355C9.36845 11.173 9.33333 11.0882 9.33333 10.9998C9.33333 10.9114 9.36845 10.8266 9.43096 10.7641C9.49348 10.7016 9.57826 10.6665 9.66667 10.6665H13.6667C13.7551 10.6665 13.8399 10.7016 13.9024 10.7641C13.9649 10.8266 14 10.9114 14 10.9998C14 11.0882 13.9649 11.173 13.9024 11.2355C13.8399 11.2981 13.7551 11.3332 13.6667 11.3332Z" fill="#108F1E"/>
</svg>
