<svg width="72" height="72" viewBox="0 0 72 72" fill="none" xmlns="http://www.w3.org/2000/svg">
<g clip-path="url(#clip0_9419_6055)">
<path d="M36 72C55.8823 72 72 55.8823 72 36C72 16.1177 55.8823 0 36 0C16.1177 0 0 16.1177 0 36C0 55.8823 16.1177 72 36 72Z" fill="#15B826"/>
<path d="M56.1656 26.3266H15.8343C15.5812 26.3266 15.3702 26.1156 15.3702 25.8625C15.3702 25.6094 15.5812 25.3984 15.8343 25.3984H56.1796C56.4327 25.3984 56.6437 25.6094 56.6437 25.8625C56.6437 26.1156 56.4327 26.3266 56.1656 26.3266Z" fill="#FFFFFE"/>
<path d="M21.3468 23.3168H20.2077C19.9546 23.3168 19.7437 23.1059 19.7437 22.8527C19.7437 22.5996 19.9546 22.3887 20.2077 22.3887H21.3468C21.5999 22.3887 21.8108 22.5996 21.8108 22.8527C21.8108 23.1059 21.614 23.3168 21.3468 23.3168Z" fill="#FFFFFE"/>
<path d="M25.8188 23.3168H24.6798C24.4266 23.3168 24.2157 23.1059 24.2157 22.8527C24.2157 22.5996 24.4266 22.3887 24.6798 22.3887H25.8188C26.0719 22.3887 26.2829 22.5996 26.2829 22.8527C26.2829 23.1059 26.0719 23.3168 25.8188 23.3168Z" fill="#FFFFFE"/>
<path d="M30.2765 23.3168H29.1374C28.8843 23.3168 28.6733 23.1059 28.6733 22.8527C28.6733 22.5996 28.8843 22.3887 29.1374 22.3887H30.2765C30.5296 22.3887 30.7405 22.5996 30.7405 22.8527C30.7405 23.1059 30.5437 23.3168 30.2765 23.3168Z" fill="#FFFFFE"/>
<path d="M55.1953 52.65H17.1562C16.1719 52.65 15.3703 51.8484 15.3703 50.8641V21.1359C15.3562 20.1516 16.1719 19.3359 17.1562 19.3359H54.8578C55.8422 19.3359 56.6437 20.1375 56.6437 21.1219V51.2016C56.6437 52.0172 55.9969 52.65 55.1953 52.65ZM17.1562 20.2781C16.6922 20.2781 16.2984 20.6578 16.2984 21.1359V50.8641C16.2984 51.3281 16.6781 51.7219 17.1562 51.7219H55.2094C55.4765 51.7219 55.7015 51.4969 55.7015 51.2297V21.1359C55.7015 20.6578 55.3219 20.2781 54.8578 20.2781H17.1562Z" fill="#FFFFFE"/>
<path d="M46.1811 48.9641H25.8186C24.5389 48.9641 23.4983 47.9234 23.4983 46.6438V46.5312C23.4983 45.2516 24.5389 44.2109 25.8186 44.2109H46.1952C47.4748 44.2109 48.5155 45.2516 48.5155 46.5312V46.6438C48.5155 47.9234 47.4748 48.9641 46.1811 48.9641ZM25.8186 45.1531C25.0452 45.1531 24.4405 45.7719 24.4405 46.5312V46.6438C24.4405 47.4172 25.0592 48.0219 25.8186 48.0219H46.1952C46.9686 48.0219 47.5733 47.4031 47.5733 46.6438V46.5312C47.5733 45.7578 46.9545 45.1531 46.1952 45.1531H25.8186Z" fill="#FFFFFE"/>
<path d="M36 41.7953C32.4984 41.7953 29.6296 38.9406 29.6296 35.425C29.6296 31.9094 32.4843 29.0547 36 29.0547C39.5156 29.0547 42.3703 31.9094 42.3703 35.425C42.3703 38.9406 39.5156 41.7953 36 41.7953ZM36 29.9969C33.0046 29.9969 30.5718 32.4297 30.5718 35.425C30.5718 38.4203 33.0046 40.8531 36 40.8531C38.9953 40.8531 41.4281 38.4203 41.4281 35.425C41.4281 32.4297 38.9953 29.9969 36 29.9969Z" fill="#FFFFFE"/>
<path d="M35.9999 37.0535C34.5937 37.0535 33.4546 35.9145 33.4546 34.5082C33.4546 33.102 34.5937 31.9629 35.9999 31.9629C37.4062 31.9629 38.5452 33.102 38.5452 34.5082C38.5452 35.9004 37.4062 37.0535 35.9999 37.0535ZM35.9999 32.891C35.114 32.891 34.3827 33.6082 34.3827 34.5082C34.3827 35.4082 35.0999 36.1254 35.9999 36.1254C36.8858 36.1254 37.6171 35.4082 37.6171 34.5082C37.6171 33.6082 36.8858 32.891 35.9999 32.891Z" fill="#FFFFFE"/>
<path d="M32.203 40.4281C32.1889 40.4281 32.1608 40.4281 32.1468 40.4281C31.8936 40.4 31.7108 40.175 31.7389 39.9078C31.9921 37.7562 33.8202 36.125 35.9858 36.125C38.1514 36.125 39.9796 37.7422 40.2327 39.9078C40.2608 40.1609 40.078 40.4 39.8249 40.4281C39.5718 40.4563 39.3327 40.2734 39.3046 40.0203C39.1077 38.3469 37.6874 37.0672 35.9858 37.0672C34.2843 37.0672 32.8639 38.3328 32.6671 40.0203C32.653 40.2453 32.4421 40.4281 32.203 40.4281Z" fill="#FFFFFE"/>
<path d="M27.1545 47.0672C27.1264 47.0672 27.0982 47.0672 27.0561 47.0531C27.0279 47.0391 26.9998 47.0391 26.9717 47.0391C26.9436 47.025 26.9154 47.025 26.8873 46.9969C26.8732 46.9828 26.8451 46.9547 26.817 46.9406C26.7889 46.9266 26.7748 46.8984 26.7607 46.8703C26.7467 46.8422 26.7326 46.8141 26.7186 46.7859C26.7045 46.7578 26.7045 46.7297 26.7045 46.7016C26.6904 46.6734 26.6904 46.6453 26.6904 46.6031C26.6904 46.4766 26.7326 46.3641 26.8311 46.2656C26.8451 46.2516 26.8732 46.2234 26.9014 46.2094C26.9154 46.1953 26.9576 46.1812 26.9857 46.1672C27.0139 46.1531 27.042 46.1531 27.0701 46.1531C27.1264 46.1391 27.1967 46.1391 27.2529 46.1531C27.2811 46.1672 27.3092 46.1672 27.3373 46.1672C27.3654 46.1812 27.3936 46.1812 27.4217 46.2094C27.4357 46.2234 27.4639 46.2516 27.492 46.2656C27.5764 46.35 27.6326 46.4766 27.6326 46.6031C27.6326 46.6312 27.6326 46.6594 27.6186 46.7016C27.6045 46.7297 27.6045 46.7578 27.6045 46.7859C27.5904 46.8141 27.5904 46.8422 27.5623 46.8703C27.5482 46.8844 27.5201 46.9125 27.5061 46.9406C27.492 46.9687 27.4639 46.9828 27.4357 46.9969C27.4217 47.0109 27.3795 47.025 27.3514 47.0391C27.3232 47.0531 27.2951 47.0531 27.267 47.0531C27.2107 47.0672 27.1826 47.0672 27.1545 47.0672Z" fill="#FFFFFE"/>
<path d="M30.6842 47.0672C30.656 47.0672 30.6279 47.0672 30.5857 47.0531C30.5435 47.0391 30.5295 47.0391 30.5013 47.0391C30.4732 47.025 30.4451 47.025 30.417 46.9969C30.4029 46.9828 30.3748 46.9547 30.3467 46.9406C30.3185 46.9266 30.3045 46.8984 30.2904 46.8703C30.2763 46.8562 30.2623 46.8141 30.2482 46.7859C30.2342 46.7578 30.2342 46.7297 30.2342 46.7016C30.2201 46.6734 30.2201 46.6453 30.2201 46.6031C30.2201 46.4766 30.2623 46.3641 30.3607 46.2656C30.3748 46.2516 30.4029 46.2234 30.431 46.2094C30.4592 46.1953 30.4873 46.1812 30.5154 46.1672C30.5435 46.1531 30.5717 46.1531 30.5998 46.1531C30.656 46.1391 30.7263 46.1391 30.7826 46.1531C30.8107 46.1672 30.8388 46.1672 30.867 46.1672C30.8951 46.1812 30.9232 46.1812 30.9513 46.2094C30.9654 46.2234 30.9935 46.2516 31.0217 46.2656C31.106 46.35 31.1623 46.4766 31.1623 46.6031C31.1623 46.6312 31.1623 46.6594 31.1482 46.7016C31.1342 46.7297 31.1342 46.7578 31.1342 46.7859C31.1201 46.8141 31.1201 46.8422 31.092 46.8703C31.0779 46.8844 31.0498 46.9125 31.0357 46.9406C31.0217 46.9547 30.9935 46.9828 30.9654 46.9969C30.9373 47.0109 30.9092 47.025 30.881 47.0391C30.8529 47.0531 30.8248 47.0531 30.7967 47.0531C30.7545 47.0672 30.7263 47.0672 30.6842 47.0672Z" fill="#FFFFFE"/>
<path d="M34.2277 47.0672C34.1996 47.0672 34.1715 47.0672 34.1293 47.0531C34.1012 47.0391 34.073 47.0391 34.0449 47.0391C34.0168 47.025 33.9887 47.025 33.9605 46.9969C33.9465 46.9828 33.9184 46.9547 33.8902 46.9406C33.8762 46.9266 33.848 46.8984 33.834 46.8703C33.8199 46.8422 33.8059 46.8141 33.7918 46.7859C33.7777 46.7578 33.7777 46.7297 33.7777 46.7016C33.7637 46.6734 33.7637 46.6453 33.7637 46.6031C33.7637 46.4766 33.8059 46.3641 33.9043 46.2656C33.9184 46.2516 33.9465 46.2234 33.9746 46.2094C34.0027 46.1953 34.0309 46.1812 34.059 46.1672C34.0871 46.1531 34.1152 46.1531 34.1434 46.1531C34.1996 46.1391 34.2699 46.1391 34.3262 46.1531C34.3543 46.1672 34.3824 46.1672 34.4105 46.1672C34.4387 46.1812 34.4668 46.1812 34.4949 46.2094C34.509 46.2234 34.5371 46.2516 34.5652 46.2656C34.6496 46.35 34.7059 46.4766 34.7059 46.6031C34.7059 46.6312 34.7059 46.6594 34.6918 46.7016C34.6777 46.7297 34.6777 46.7578 34.6777 46.7859C34.6637 46.8141 34.6637 46.8422 34.6355 46.8703C34.6215 46.8844 34.5934 46.9125 34.5793 46.9406C34.5652 46.9687 34.5371 46.9828 34.509 46.9969C34.4809 47.0109 34.4527 47.025 34.4246 47.0391C34.3965 47.0531 34.3684 47.0531 34.3402 47.0531C34.284 47.0672 34.2559 47.0672 34.2277 47.0672Z" fill="#FFFFFE"/>
<path d="M37.7717 47.0672C37.7435 47.0672 37.7154 47.0672 37.6732 47.0531C37.6451 47.0391 37.617 47.0391 37.5888 47.0391C37.5607 47.025 37.5326 47.025 37.5185 46.9969C37.5045 46.9828 37.4763 46.9547 37.4482 46.9406C37.4342 46.9266 37.406 46.8984 37.392 46.8703C37.3779 46.8562 37.3638 46.8141 37.3498 46.7859C37.3357 46.7578 37.3357 46.7297 37.3357 46.7016C37.3217 46.6734 37.3217 46.6453 37.3217 46.6031C37.3217 46.4766 37.3638 46.3641 37.4623 46.2656C37.4763 46.2516 37.5045 46.2234 37.5326 46.2094C37.5607 46.1953 37.5888 46.1812 37.617 46.1672C37.6451 46.1531 37.6732 46.1531 37.7013 46.1531C37.7576 46.1391 37.8279 46.1391 37.8842 46.1531C37.9123 46.1672 37.9404 46.1672 37.9685 46.1672C37.9967 46.1812 38.0248 46.1812 38.0529 46.2094C38.067 46.2234 38.0951 46.2516 38.1232 46.2656C38.2076 46.35 38.2638 46.4766 38.2638 46.6031C38.2638 46.6312 38.2638 46.6594 38.2498 46.7016C38.2357 46.7297 38.2357 46.7578 38.2357 46.7859C38.2217 46.8141 38.2217 46.8422 38.1935 46.8703C38.1795 46.8844 38.1513 46.9125 38.1373 46.9406C38.0107 47.025 37.8982 47.0672 37.7717 47.0672Z" fill="#FFFFFE"/>
<path d="M41.3153 47.0672C41.2871 47.0672 41.259 47.0672 41.2168 47.0531C41.1887 47.0391 41.1606 47.0391 41.1324 47.0391C41.1043 47.025 41.0762 47.025 41.0481 46.9969C41.034 46.9828 41.0059 46.9547 40.9778 46.9406C40.9496 46.9266 40.9356 46.8984 40.9215 46.8703C40.9074 46.8422 40.8934 46.8141 40.8793 46.7859C40.8653 46.7578 40.8653 46.7297 40.8653 46.7016C40.8512 46.6734 40.8512 46.6453 40.8512 46.6031C40.8512 46.4766 40.8934 46.35 40.9918 46.2656C41.0059 46.2516 41.034 46.2234 41.0621 46.2094C41.0762 46.1953 41.1184 46.1812 41.1465 46.1672C41.1746 46.1531 41.2028 46.1531 41.2309 46.1531C41.2871 46.1391 41.3574 46.1391 41.4137 46.1531C41.4418 46.1672 41.4699 46.1672 41.4981 46.1672C41.5262 46.1812 41.5543 46.1812 41.5684 46.2094C41.5824 46.2234 41.6106 46.2516 41.6387 46.2656C41.7231 46.35 41.7793 46.4766 41.7793 46.6031C41.7793 46.6312 41.7793 46.6594 41.7653 46.7016C41.7512 46.7297 41.7512 46.7578 41.7512 46.7859C41.7371 46.8141 41.7371 46.8422 41.709 46.8703C41.6949 46.8844 41.6668 46.9125 41.6528 46.9406C41.6387 46.9687 41.6106 46.9828 41.5824 46.9969C41.5543 47.0109 41.5262 47.025 41.5121 47.0391C41.484 47.0531 41.4559 47.0531 41.4278 47.0531C41.3715 47.0672 41.3434 47.0672 41.3153 47.0672Z" fill="#FFFFFE"/>
<path d="M44.8449 47.0672C44.8168 47.0672 44.7887 47.0672 44.7465 47.0531C44.7043 47.0391 44.6902 47.0391 44.6621 47.0391C44.634 47.025 44.6059 47.025 44.5777 46.9969C44.5637 46.9828 44.5355 46.9547 44.5074 46.9406C44.4934 46.9266 44.4652 46.8984 44.4512 46.8703C44.4371 46.8562 44.423 46.8141 44.409 46.7859C44.3949 46.7578 44.3949 46.7297 44.3949 46.7016C44.3809 46.6734 44.3809 46.6453 44.3809 46.6031C44.3809 46.4766 44.423 46.35 44.5215 46.2656C44.5355 46.2516 44.5637 46.2234 44.5918 46.2094C44.6199 46.1953 44.648 46.1812 44.6762 46.1672C44.7043 46.1531 44.7324 46.1531 44.7605 46.1531C44.8168 46.1391 44.8871 46.1391 44.9434 46.1531C44.9715 46.1672 44.9996 46.1672 45.0277 46.1672C45.0559 46.1812 45.084 46.1812 45.098 46.2094C45.1121 46.2234 45.1402 46.2516 45.1684 46.2656C45.2527 46.35 45.309 46.4766 45.309 46.6031C45.309 46.6312 45.309 46.6594 45.2949 46.7016C45.2809 46.7297 45.2809 46.7578 45.2809 46.7859C45.2668 46.8141 45.2668 46.8422 45.2387 46.8703C45.2246 46.8844 45.1965 46.9125 45.1824 46.9406C45.084 47.025 44.9715 47.0672 44.8449 47.0672Z" fill="#FFFFFE"/>
</g>
<defs>
<clipPath id="clip0_9419_6055">
<rect width="72" height="72" fill="white"/>
</clipPath>
</defs>
</svg>
