<svg width="117" height="27" viewBox="0 0 117 27" fill="none" xmlns="http://www.w3.org/2000/svg">
<path d="M11.918 0.230469H17.1035V16.543C17.1035 18.6758 16.916 20.3164 16.541 21.4648C16.0371 22.9648 15.123 24.1719 13.7988 25.0859C12.4746 25.9883 10.7285 26.4395 8.56055 26.4395C6.01758 26.4395 4.06055 25.7305 2.68945 24.3125C1.31836 22.8828 0.626953 20.791 0.615234 18.0371L5.51953 17.4746C5.57812 18.9512 5.79492 19.9941 6.16992 20.6035C6.73242 21.5293 7.58789 21.9922 8.73633 21.9922C9.89648 21.9922 10.7168 21.6641 11.1973 21.0078C11.6777 20.3398 11.918 18.9629 11.918 16.877V0.230469ZM34.9102 26V23.2051C34.2305 24.2012 33.334 24.9863 32.2207 25.5605C31.1191 26.1348 29.9531 26.4219 28.7227 26.4219C27.4688 26.4219 26.3438 26.1465 25.3477 25.5957C24.3516 25.0449 23.6309 24.2715 23.1855 23.2754C22.7402 22.2793 22.5176 20.9023 22.5176 19.1445V7.33203H27.457V15.9102C27.457 18.5352 27.5449 20.1465 27.7207 20.7441C27.9082 21.3301 28.2422 21.7988 28.7227 22.1504C29.2031 22.4902 29.8125 22.6602 30.5508 22.6602C31.3945 22.6602 32.1504 22.4316 32.8184 21.9746C33.4863 21.5059 33.9434 20.9316 34.1895 20.252C34.4355 19.5605 34.5586 17.8789 34.5586 15.207V7.33203H39.498V26H34.9102ZM49.3594 26H44.4199V7.33203H49.0078V9.98633C49.793 8.73242 50.4961 7.90625 51.1172 7.50781C51.75 7.10937 52.4648 6.91016 53.2617 6.91016C54.3867 6.91016 55.4707 7.2207 56.5137 7.8418L54.9844 12.1484C54.1523 11.6094 53.3789 11.3398 52.6641 11.3398C51.9727 11.3398 51.3867 11.5332 50.9062 11.9199C50.4258 12.2949 50.0449 12.9805 49.7637 13.9766C49.4941 14.9727 49.3594 17.0586 49.3594 20.2344V26ZM75.6387 26H70.6992V16.4727C70.6992 14.457 70.5938 13.1562 70.3828 12.5703C70.1719 11.9727 69.8262 11.5098 69.3457 11.1816C68.877 10.8535 68.3086 10.6895 67.6406 10.6895C66.7852 10.6895 66.0176 10.9238 65.3379 11.3926C64.6582 11.8613 64.1895 12.4824 63.9316 13.2559C63.6855 14.0293 63.5625 15.459 63.5625 17.5449V26H58.623V7.33203H63.2109V10.0742C64.8398 7.96484 66.8906 6.91016 69.3633 6.91016C70.4531 6.91016 71.4492 7.10937 72.3516 7.50781C73.2539 7.89453 73.9336 8.39258 74.3906 9.00195C74.8594 9.61133 75.1816 10.3027 75.3574 11.0762C75.5449 11.8496 75.6387 12.957 75.6387 14.3984V26ZM91.4766 20.0586L96.3984 20.8848C95.7656 22.6895 94.7637 24.0664 93.3926 25.0156C92.0332 25.9531 90.3281 26.4219 88.2773 26.4219C85.0312 26.4219 82.6289 25.3613 81.0703 23.2402C79.8398 21.541 79.2246 19.3965 79.2246 16.8066C79.2246 13.7129 80.0332 11.293 81.6504 9.54688C83.2676 7.78906 85.3125 6.91016 87.7852 6.91016C90.5625 6.91016 92.7539 7.83008 94.3594 9.66992C95.9648 11.498 96.7324 14.3047 96.6621 18.0898H84.2871C84.3223 19.5547 84.7207 20.6973 85.4824 21.5176C86.2441 22.3262 87.1934 22.7305 88.3301 22.7305C89.1035 22.7305 89.7539 22.5195 90.2812 22.0977C90.8086 21.6758 91.207 20.9961 91.4766 20.0586ZM91.7578 15.0664C91.7227 13.6367 91.3535 12.5527 90.6504 11.8145C89.9473 11.0645 89.0918 10.6895 88.084 10.6895C87.0059 10.6895 86.1152 11.082 85.4121 11.8672C84.709 12.6523 84.3633 13.7188 84.375 15.0664H91.7578ZM111.516 20.0586L116.438 20.8848C115.805 22.6895 114.803 24.0664 113.432 25.0156C112.072 25.9531 110.367 26.4219 108.316 26.4219C105.07 26.4219 102.668 25.3613 101.109 23.2402C99.8789 21.541 99.2637 19.3965 99.2637 16.8066C99.2637 13.7129 100.072 11.293 101.689 9.54688C103.307 7.78906 105.352 6.91016 107.824 6.91016C110.602 6.91016 112.793 7.83008 114.398 9.66992C116.004 11.498 116.771 14.3047 116.701 18.0898H104.326C104.361 19.5547 104.76 20.6973 105.521 21.5176C106.283 22.3262 107.232 22.7305 108.369 22.7305C109.143 22.7305 109.793 22.5195 110.32 22.0977C110.848 21.6758 111.246 20.9961 111.516 20.0586ZM111.797 15.0664C111.762 13.6367 111.393 12.5527 110.689 11.8145C109.986 11.0645 109.131 10.6895 108.123 10.6895C107.045 10.6895 106.154 11.082 105.451 11.8672C104.748 12.6523 104.402 13.7188 104.414 15.0664H111.797Z" fill="#17CA2A"/>
</svg>
