<svg width="36" height="36" viewBox="0 0 36 36" fill="none" xmlns="http://www.w3.org/2000/svg">
<path d="M34.8728 15.7491C34.2519 15.7491 33.7479 16.253 33.7479 16.874V29.6127L24.7485 33.2125V21.3737C24.7485 20.7527 24.2445 20.2488 23.6235 20.2488C23.0026 20.2488 22.4986 20.7527 22.4986 21.3737V33.2102L13.4992 29.6104V11.787L18.7121 13.8727C19.2813 14.1022 19.9428 13.8232 20.1745 13.245C20.4062 12.669 20.125 12.0143 19.5468 11.7826L12.8129 9.08722H12.8107L12.7927 9.08047C12.5249 8.97248 12.2258 8.97248 11.958 9.08047L11.9378 9.08722H11.9355L0.706456 13.5802C0.49795 13.6638 0.319242 13.8079 0.193339 13.994C0.0674356 14.18 9.97493e-05 14.3995 0 14.6241V34.8729C0 35.2463 0.186738 35.5951 0.494969 35.8043C0.680728 35.9307 0.900266 35.9981 1.12493 35.9978C1.26667 35.9978 1.40841 35.9708 1.5434 35.9168L12.3742 31.5858L23.1848 35.91H23.1871L23.2073 35.919C23.4751 36.027 23.7742 36.027 24.042 35.919L24.0622 35.91H24.0645L35.2935 31.4193C35.7165 31.2461 35.9977 30.8344 35.9977 30.3731V16.874C35.9977 16.253 35.4938 15.7491 34.8728 15.7491ZM11.2493 29.6104L2.24986 33.2102V15.3846L11.2493 11.7848V29.6104ZM28.1232 4.49976C26.2626 4.49976 24.7485 6.01391 24.7485 7.87454C24.7485 9.73518 26.2626 11.2493 28.1232 11.2493C29.9839 11.2493 31.498 9.73518 31.498 7.87454C31.498 6.01391 29.9839 4.49976 28.1232 4.49976ZM28.1232 8.99947C27.5023 8.99947 26.9983 8.49551 26.9983 7.87454C26.9983 7.25358 27.5023 6.74962 28.1232 6.74962C28.7442 6.74962 29.2482 7.25358 29.2482 7.87454C29.2482 8.49551 28.7442 8.99947 28.1232 8.99947Z" fill="white"/>
<path d="M28.123 0C23.7808 0 20.2485 3.53228 20.2485 7.87451C20.2485 11.9153 26.5661 19.0721 27.2861 19.8753C27.4998 20.1115 27.8036 20.2487 28.123 20.2487C28.4425 20.2487 28.7463 20.1115 28.96 19.8753C29.6799 19.0721 35.9976 11.9153 35.9976 7.87451C35.9976 3.53228 32.4653 0 28.123 0ZM28.123 17.4072C25.6662 14.4936 22.4984 10.0209 22.4984 7.87451C22.4984 4.7742 25.0227 2.24986 28.123 2.24986C31.2233 2.24986 33.7477 4.7742 33.7477 7.87451C33.7477 10.0186 30.5799 14.4936 28.123 17.4072Z" fill="white"/>
</svg>
