<svg width="28" height="41" viewBox="0 0 28 41" fill="none" xmlns="http://www.w3.org/2000/svg">
<path d="M25.76 22.3601H25.77C25.77 22.3601 22 27.8901 18.83 32.0001C16.09 35.5501 15.29 38.5901 15.06 40.0601C14.97 40.6001 14.53 41.0001 14 41.0001C13.47 41.0001 13.03 40.6001 12.94 40.0601C12.71 38.5901 11.91 35.5501 9.17002 32.0001C8.75002 31.4501 8.32001 30.8801 7.89001 30.3001L18.24 18.0001L26.57 8.12012C27.49 10.0501 28 12.2101 28 14.5001C28 17.4001 27.17 20.0901 25.76 22.3601Z" fill="#15B826"/>
<path d="M18.24 18L7.89 30.3C5.07 26.52 2.23 22.36 2.23 22.36H2.24C1.94 21.88 1.67 21.39 1.44 20.88L9.76 11C8.97 11.95 8.5 13.17 8.5 14.5C8.5 17.54 10.96 20 14 20C15.71 20 17.24 19.22 18.24 18Z" fill="#15B826"/>
<path d="M18.4 0.74L9.83002 10.92L3.27002 5.2C5.83002 2.02 9.69002 0 14 0C15.54 0 17.02 0.26 18.4 0.74Z" fill="#15B826"/>
<path d="M9.83 10.92L9.76 11L1.44 20.88C0.52 18.95 0 16.79 0 14.5C0 10.96 1.23 7.70995 3.27 5.19995L9.83 10.92Z" fill="#15B826"/>
<path d="M18.24 18C19.03 17.05 19.5 15.83 19.5 14.5C19.5 11.46 17.04 8.99999 14 8.99999C12.29 8.99999 10.76 9.77999 9.76001 11L18.4 0.73999C21.99 1.95999 24.93 4.64999 26.57 8.11999L18.24 18Z" fill="#15B826"/>
</svg>
