<svg width="16" height="16" viewBox="0 0 16 16" fill="none" xmlns="http://www.w3.org/2000/svg">
<path d="M7.09482 14.7314C6.92009 14.7318 6.74703 14.6975 6.58556 14.6308C6.4241 14.564 6.27743 14.4659 6.15398 14.3423L2.3875 10.5758C2.14202 10.3283 2.00299 9.99463 2.00005 9.64603C1.99711 9.29744 2.13049 8.96149 2.37175 8.70986L8.38291 2.51376C8.50716 2.38593 8.65571 2.28423 8.81984 2.21466C8.98397 2.14509 9.16035 2.10904 9.33862 2.10864H11.5296C11.5884 2.10864 11.6448 2.132 11.6864 2.17359C11.728 2.21517 11.7514 2.27157 11.7514 2.33038C11.7514 2.38919 11.728 2.44559 11.6864 2.48718C11.6448 2.52876 11.5884 2.55212 11.5296 2.55212H9.33862C9.21975 2.55236 9.10213 2.57638 8.99268 2.62277C8.88324 2.66915 8.78418 2.73696 8.70133 2.8222L2.69061 9.01852C2.52983 9.18626 2.44094 9.41017 2.44288 9.64251C2.44483 9.87485 2.53746 10.0972 2.70104 10.2623L6.46752 14.0287C6.634 14.1948 6.85956 14.2881 7.09471 14.2881C7.32987 14.2881 7.55542 14.1948 7.72191 14.0287L13.9306 7.82001C14.0133 7.73785 14.0788 7.64013 14.1234 7.53249C14.168 7.42486 14.1908 7.30944 14.1905 7.19293V3.21734C14.1905 3.04092 14.1204 2.87172 13.9957 2.74696C13.8709 2.62221 13.7017 2.55212 13.5253 2.55212H12.1949C12.136 2.55212 12.0796 2.52876 12.0381 2.48718C11.9965 2.44559 11.9731 2.38919 11.9731 2.33038C11.9731 2.27157 11.9965 2.21517 12.0381 2.17359C12.0796 2.132 12.136 2.10864 12.1949 2.10864H13.5253C13.8192 2.10899 14.101 2.22592 14.3089 2.43376C14.5167 2.64161 14.6336 2.92341 14.634 3.21734V7.19293C14.6345 7.36773 14.6003 7.54089 14.5335 7.70238C14.4666 7.86388 14.3683 8.01051 14.2444 8.13377L8.03567 14.3425C7.9122 14.4661 7.76552 14.5641 7.60406 14.6309C7.4426 14.6976 7.26954 14.7318 7.09482 14.7314Z" fill="#4B5563" stroke="#4B5563" stroke-width="0.443481"/>
<path d="M12.6382 5.21301C12.3443 5.21266 12.0625 5.09574 11.8547 4.88789C11.6468 4.68004 11.5299 4.39825 11.5295 4.10431C11.5295 4.0455 11.5529 3.9891 11.5945 3.94751C11.6361 3.90593 11.6925 3.88257 11.7513 3.88257C11.8101 3.88257 11.8665 3.90593 11.9081 3.94751C11.9497 3.9891 11.973 4.0455 11.973 4.10431C11.973 4.25642 12.0251 4.40394 12.1207 4.52229C12.2163 4.64064 12.3495 4.72266 12.4982 4.75468C12.6469 4.78671 12.8021 4.7668 12.9379 4.69828C13.0737 4.62976 13.1819 4.51677 13.2445 4.37814C13.3071 4.2395 13.3203 4.0836 13.2819 3.93642C13.2435 3.78923 13.1558 3.65966 13.0335 3.56928C12.9111 3.47891 12.7615 3.4332 12.6095 3.43977C12.4575 3.44634 12.3124 3.50479 12.1983 3.60539C12.1542 3.64432 12.0964 3.66414 12.0377 3.66048C11.979 3.65682 11.9241 3.62999 11.8852 3.58588C11.8463 3.54177 11.8265 3.48401 11.8301 3.42529C11.8338 3.36657 11.8606 3.31171 11.9047 3.27278C12.0393 3.15413 12.2006 3.0699 12.3748 3.02731C12.5491 2.98472 12.7311 2.98505 12.9052 3.02826C13.0793 3.07148 13.2403 3.15629 13.3744 3.27542C13.5085 3.39455 13.6117 3.54445 13.6751 3.71224C13.7386 3.88003 13.7603 4.06071 13.7386 4.23876C13.7168 4.41682 13.6522 4.58694 13.5502 4.73452C13.4483 4.88211 13.312 5.00275 13.1532 5.08609C12.9943 5.16943 12.8176 5.21298 12.6382 5.21301Z" fill="#4B5563" stroke="#4B5563" stroke-width="0.22174"/>
<path d="M12.7493 3.88263C12.5073 3.8826 12.2693 3.82167 12.0571 3.70545C11.8449 3.58922 11.6653 3.42145 11.535 3.21759C11.4047 3.01373 11.3278 2.78035 11.3114 2.53895C11.295 2.29756 11.3397 2.05592 11.4412 1.83632C11.5428 1.61672 11.698 1.42621 11.8925 1.28237C12.0871 1.13853 12.3147 1.04598 12.5544 1.01325C12.7942 0.980519 13.0383 1.00866 13.2643 1.09509C13.4903 1.18152 13.6908 1.32344 13.8476 1.50779C13.8665 1.52996 13.8809 1.55565 13.8899 1.58338C13.8989 1.61111 13.9023 1.64034 13.9 1.6694C13.8977 1.69846 13.8897 1.72679 13.8765 1.75276C13.8632 1.77874 13.845 1.80185 13.8228 1.82077C13.8007 1.8397 13.775 1.85408 13.7472 1.86308C13.7195 1.87208 13.6903 1.87553 13.6612 1.87323C13.6322 1.87094 13.6038 1.86294 13.5779 1.8497C13.5519 1.83645 13.5288 1.81822 13.5098 1.79605C13.4015 1.66822 13.2626 1.56974 13.1062 1.5097C12.9497 1.44967 12.7807 1.43001 12.6146 1.45254C12.4485 1.47507 12.2908 1.53906 12.156 1.63862C12.0212 1.73817 11.9136 1.87007 11.8432 2.02216C11.7728 2.17424 11.7418 2.34161 11.7532 2.50881C11.7645 2.67602 11.8178 2.83767 11.9081 2.97886C11.9984 3.12005 12.1227 3.23623 12.2698 3.31667C12.4168 3.39712 12.5817 3.43924 12.7493 3.43915C12.8081 3.43915 12.8645 3.46251 12.9061 3.50409C12.9477 3.54568 12.971 3.60208 12.971 3.66089C12.971 3.7197 12.9477 3.7761 12.9061 3.81768C12.8645 3.85926 12.8081 3.88263 12.7493 3.88263Z" fill="#4B5563" stroke="#4B5563" stroke-width="0.22174"/>
</svg>
