<svg width="25" height="24" viewBox="0 0 25 24" fill="none" xmlns="http://www.w3.org/2000/svg">
<path d="M7.4499 19.5C6.8999 19.5 6.3999 19 6.4499 18.4L6.4999 16.8C5.2999 16.6 4.3999 15.55 4.3999 14.35V7C4.3999 5.6 5.4999 4.5 6.8999 4.5H18.0499C19.4499 4.5 20.5499 5.6 20.5499 7V14.35C20.5499 15.75 19.4499 16.85 18.0499 16.85H11.5999L7.9499 19.4C7.7999 19.45 7.6499 19.5 7.4499 19.5ZM6.9499 5.5C6.0999 5.5 5.4499 6.15 5.4499 7V14.35C5.4499 15.25 6.1999 15.9 7.0499 15.85C7.3499 15.85 7.5499 16.1 7.5499 16.35L7.4499 18.5L11.1499 15.95C11.2499 15.9 11.3499 15.85 11.4499 15.85H18.0499C18.8999 15.85 19.5499 15.2 19.5499 14.35V7C19.5499 6.15 18.8999 5.5 18.0499 5.5H6.9499ZM12.1999 11.7C12.1499 11.65 12.0999 11.55 12.0499 11.4L11.6999 8.55C11.5499 7.55 13.3499 7.55 13.1499 8.55L12.7999 11.35C12.8499 11.75 12.4499 11.9 12.1999 11.7ZM11.9999 13.4C11.3999 12.75 12.2999 11.75 12.9999 12.4C13.5999 13.1 12.6499 14.05 11.9999 13.4Z" fill="#15B826"/>
</svg>
