<svg width="44" height="44" viewBox="0 0 44 44" fill="none" xmlns="http://www.w3.org/2000/svg">
<path d="M27.5 35.7294C26.8015 36.0099 26.0796 36.245 25.333 36.4169L25.0305 40.3576C25.0118 40.6004 24.9021 40.8272 24.7234 40.9927C24.5447 41.1581 24.3102 41.25 24.0666 41.25H19.932C19.6888 41.25 19.4546 41.1583 19.2762 40.9931C19.0977 40.8279 18.9882 40.6014 18.9695 40.359L18.667 36.4183C17.0727 36.0507 15.5511 35.4192 14.1652 34.5496L11.1609 37.125C10.9761 37.2835 10.7383 37.3663 10.495 37.3569C10.2518 37.3475 10.0211 37.2465 9.84912 37.0741L6.92588 34.1509C6.75384 33.9788 6.65304 33.7481 6.64361 33.505C6.63418 33.2618 6.71681 33.024 6.875 32.8391L9.45038 29.8347C8.58199 28.4483 7.95049 26.9269 7.58175 25.333L3.641 25.0305C3.39844 25.0115 3.17197 24.9017 3.00681 24.723C2.84165 24.5443 2.74995 24.3099 2.75 24.0666V19.932C2.75 19.4274 3.13912 19.008 3.641 18.9695L7.58175 18.667C7.94926 17.0727 8.58085 15.5511 9.45038 14.1652L6.87637 11.1609C6.7181 10.9764 6.63528 10.7389 6.64445 10.496C6.65363 10.2531 6.75413 10.0225 6.92588 9.8505L9.84912 6.92725C10.0214 6.75551 10.252 6.65491 10.4951 6.64549C10.7381 6.63606 10.9758 6.71849 11.1609 6.87637L14.1652 9.45175C15.5517 8.58337 17.0731 7.95186 18.667 7.58312L18.9695 3.64237C18.9882 3.39956 19.0979 3.17276 19.2766 3.00732C19.4553 2.84187 19.6898 2.74997 19.9334 2.75H24.068C24.5726 2.75 24.992 3.13912 25.0305 3.641L25.0484 3.87063C24.0635 5.38129 23.4925 7.12409 23.3926 8.92468C23.2927 10.7253 23.6674 12.5205 24.4791 14.1309C23.3447 13.7737 22.1465 13.666 20.9665 13.8152C19.7866 13.9643 18.6529 14.3669 17.643 14.9952C16.6332 15.6235 15.7712 16.4627 15.116 17.4553C14.4608 18.4479 14.028 19.5704 13.8472 20.7459C13.6664 21.9214 13.7419 23.1221 14.0686 24.2657C14.3952 25.4093 14.9652 26.4688 15.7396 27.3715C16.5139 28.2742 17.4743 28.9988 18.5549 29.4956C19.6354 29.9925 20.8107 30.2498 22 30.25C24.0317 30.2507 25.9915 29.4977 27.5 28.1366V35.7294Z" fill="#108F1E"/>
<path d="M37.1248 16.2092V37.8119C37.1248 38.7235 36.7627 39.5979 36.118 40.2425C35.4734 40.8872 34.599 41.2494 33.6873 41.2494C32.7757 41.2494 31.9013 40.8872 31.2567 40.2425C30.612 39.5979 30.2498 38.7235 30.2498 37.8119V16.2092C29.0295 15.5872 28.0012 14.6451 27.275 13.4838C26.5488 12.3224 26.1521 10.9854 26.1272 9.61588C26.1024 8.24637 26.4503 6.89587 27.1339 5.70889C27.8174 4.52191 28.8109 3.54311 30.0078 2.87724C30.1137 2.81949 30.2498 2.90199 30.2498 3.02299V10.9994L33.6873 12.3744L37.1248 10.9994V3.02299C37.1248 2.90199 37.261 2.81949 37.3668 2.87861C38.5643 3.54397 39.5582 4.52251 40.2421 5.70943C40.926 6.89636 41.2741 8.24697 41.2493 9.6166C41.2244 10.9862 40.8275 12.3233 40.1009 13.4846C39.3744 14.646 38.3456 15.5878 37.1248 16.2092Z" fill="#108F1E"/>
</svg>
