<svg width="141" height="141" viewBox="0 0 141 141" fill="none" xmlns="http://www.w3.org/2000/svg">
<circle cx="70.5" cy="70.5" r="70.5" fill="#15B826"/>
<path fill-rule="evenodd" clip-rule="evenodd" d="M59.8548 45.916H81.1685C89.5023 45.916 95.0827 51.7668 95.0827 60.4693V80.5564C95.0827 89.2318 89.5023 95.0827 81.1685 95.0827H59.8548C51.521 95.0827 45.916 89.2318 45.916 80.5564V60.4693C45.916 51.7668 51.521 45.916 59.8548 45.916ZM69.098 77.8512L80.775 66.1741C81.6109 65.3383 81.6109 63.9862 80.775 63.1258C79.9392 62.2899 78.5625 62.2899 77.7267 63.1258L67.5738 73.2787L63.2717 68.9766C62.4359 68.1408 61.0592 68.1408 60.2234 68.9766C59.3875 69.8124 59.3875 71.1645 60.2234 72.0249L66.0742 77.8512C66.4921 78.2691 67.033 78.4658 67.5738 78.4658C68.1392 78.4658 68.68 78.2691 69.098 77.8512Z" fill="#F9F9F9"/>
</svg>
