<svg width="16" height="16" viewBox="0 0 16 16" fill="none" xmlns="http://www.w3.org/2000/svg">
<g clip-path="url(#clip0_7643_39663)">
<path d="M8.8336 9.06146L13.1863 13.4141C13.232 13.4599 13.2921 13.4827 13.352 13.4827C13.412 13.4827 13.472 13.4599 13.5177 13.4141C13.5394 13.3924 13.5567 13.3665 13.5685 13.3381C13.5803 13.3097 13.5863 13.2792 13.5863 13.2484C13.5863 13.2176 13.5803 13.1871 13.5685 13.1587C13.5567 13.1303 13.5394 13.1044 13.5177 13.0827L9.16504 8.73002C9.14328 8.70826 9.11745 8.69099 9.08902 8.67921C9.06059 8.66743 9.03011 8.66136 8.99934 8.66136C8.96856 8.66136 8.93809 8.66743 8.90965 8.67921C8.88122 8.69099 8.85539 8.70826 8.83363 8.73002C8.81186 8.75178 8.79459 8.77762 8.78281 8.80605C8.77102 8.83449 8.76496 8.86496 8.76496 8.89574C8.76496 8.92652 8.77102 8.957 8.78281 8.98544C8.79459 9.01387 8.81186 9.0397 8.83363 9.06146H8.8336ZM5.10823 5.00468C5.08646 5.02644 5.06918 5.05227 5.0574 5.08071C5.04562 5.10914 5.03955 5.13962 5.03955 5.1704C5.03955 5.20118 5.04562 5.23166 5.0574 5.26009C5.06918 5.28853 5.08646 5.31436 5.10823 5.33612L6.28391 6.51174C6.30566 6.53355 6.3315 6.55083 6.35995 6.56261C6.3884 6.57439 6.4189 6.58042 6.4497 6.58037C6.48046 6.58041 6.51093 6.57438 6.53936 6.5626C6.56778 6.55083 6.5936 6.53356 6.61532 6.51177C6.63709 6.49002 6.65436 6.46418 6.66615 6.43575C6.67793 6.40731 6.684 6.37684 6.684 6.34606C6.684 6.31528 6.67793 6.2848 6.66615 6.25636C6.65436 6.22793 6.63709 6.20209 6.61532 6.18034L5.4397 5.00471C5.41794 4.98294 5.3921 4.96567 5.36367 4.95388C5.33524 4.9421 5.30476 4.93604 5.27398 4.93604C5.2432 4.93604 5.21272 4.9421 5.18428 4.95388C5.15585 4.96567 5.13002 4.98294 5.10826 5.00471L5.10823 5.00468Z" fill="#108F1E"/>
<path d="M7.88046 9.09049L11.6554 4.91274L11.9362 5.16493C12.0141 5.23479 12.1151 5.27336 12.2197 5.27321C12.3358 5.27321 12.4515 5.22608 12.5351 5.13355L12.6093 5.05143L12.8735 5.29005L12.7687 5.40602C12.7122 5.46816 12.6686 5.54088 12.6404 5.61999C12.6123 5.69909 12.6001 5.78299 12.6046 5.86684C12.6086 5.95068 12.6292 6.03289 12.6652 6.10872C12.7012 6.18455 12.7519 6.25249 12.8143 6.30862L13.4507 6.88355C13.5128 6.94004 13.5855 6.98362 13.6645 7.01179C13.7436 7.03995 13.8275 7.05213 13.9113 7.04762C14.0819 7.03908 14.2387 6.96449 14.3532 6.83793L15.7655 5.2748C16.0017 5.01333 15.9812 4.60855 15.7198 4.37221L15.0835 3.79727C14.9569 3.6829 14.7933 3.62477 14.6228 3.63321C14.4623 3.6409 14.3106 3.70917 14.1985 3.82424L13.9341 3.58533L14.0294 3.47965C14.1864 3.30605 14.1728 3.03702 13.9992 2.8799L11.8842 0.966335V0.96621C11.3102 0.447522 10.5614 0.12121 9.77584 0.0472722C8.99278 -0.0264778 8.25668 0.156022 7.70309 0.56071C7.63521 0.610121 7.58353 0.678574 7.5546 0.75739C7.52567 0.836206 7.5208 0.921837 7.54059 1.00343C7.56014 1.08509 7.60351 1.1591 7.6652 1.21607C7.72688 1.27303 7.8041 1.31039 7.88706 1.3234C9.48909 1.57802 9.92415 2.09415 10.0368 2.30421C10.1507 2.51662 10.1434 2.75721 10.0143 3.03958C9.95628 3.1669 9.96468 3.30983 10.0308 3.42593L6.24656 7.61427C6.05246 7.50296 5.7999 7.53749 5.64387 7.70999L5.36312 8.02077C5.20625 8.19437 5.19834 8.45118 5.33115 8.63321L4.35346 9.32474C4.35203 9.32583 4.35056 9.3268 4.34909 9.3279C3.95469 9.62061 3.59018 9.95156 3.26084 10.3159L0.458465 13.4174C-0.0979417 14.0331 -0.0495979 14.9867 0.566121 15.5431C0.845058 15.7952 1.20018 15.9316 1.57331 15.9316C1.59921 15.9316 1.62518 15.9309 1.65134 15.9296C2.05281 15.9093 2.42234 15.7338 2.69187 15.4355L5.49437 12.334C5.82356 11.9695 6.11595 11.5734 6.36728 11.1514L6.36996 11.1469L6.95906 10.1043C7.03331 10.1479 7.11792 10.1709 7.20406 10.1707C7.27216 10.171 7.33954 10.1568 7.40179 10.1292C7.46404 10.1016 7.51976 10.0612 7.56528 10.0105L7.84603 9.69974C7.88897 9.65248 7.92211 9.59717 7.94353 9.53701C7.96494 9.47685 7.9742 9.41304 7.97078 9.34927C7.96632 9.25609 7.93495 9.16621 7.88046 9.09049ZM7.54 8.76808L6.60178 7.9203L10.3652 3.75515L11.3064 4.59974L7.54 8.76808ZM14.6464 4.10146C14.6688 4.10028 14.6911 4.10354 14.7122 4.11104C14.7333 4.11854 14.7527 4.13015 14.7692 4.14518L15.4055 4.71999C15.439 4.75028 15.4591 4.79262 15.4613 4.8377C15.4636 4.88279 15.4479 4.92694 15.4177 4.96046L14.0055 6.52358C13.9905 6.54021 13.9724 6.55371 13.9521 6.56331C13.9319 6.5729 13.91 6.5784 13.8877 6.57949C13.8653 6.58066 13.843 6.57741 13.8219 6.56991C13.8009 6.56241 13.7815 6.55082 13.765 6.5358L13.1286 5.96083C13.0951 5.93055 13.0751 5.88821 13.0728 5.84312C13.0705 5.79804 13.0862 5.75388 13.1164 5.72037L14.5288 4.15737C14.5437 4.14072 14.5618 4.12721 14.582 4.11761C14.6022 4.10801 14.6241 4.10252 14.6464 4.10146ZM13.8839 4.17177L13.1878 4.94227L12.9237 4.70365L13.6198 3.93312L13.8839 4.17177ZM8.06784 0.87821C9.04293 0.242335 10.5881 0.427022 11.5698 1.31387L13.6522 3.19802L12.2167 4.78677L10.4539 3.20499C10.6322 2.7974 10.6309 2.41996 10.4499 2.08255C10.0477 1.33268 8.82918 1.00971 8.06784 0.87821ZM5.96321 10.9138C5.72794 11.3084 5.45435 11.6788 5.14643 12.0197L2.34409 15.1211C2.15853 15.3266 1.90403 15.4474 1.62753 15.4614C1.35103 15.4755 1.08578 15.3809 0.88034 15.1953C0.675027 15.0098 0.554152 14.7553 0.540246 14.4789C0.526183 14.2024 0.620683 13.937 0.806246 13.7317L3.60875 10.6301C3.91679 10.2894 4.25762 9.97989 4.62631 9.70596L5.67915 8.96133L6.5975 9.79115L5.96321 10.9138ZM7.49812 9.3854L7.21737 9.69618C7.21589 9.69791 7.21405 9.69931 7.21199 9.70028C7.20993 9.70125 7.20768 9.70177 7.2054 9.7018C7.19822 9.70143 7.19431 9.69862 7.19309 9.69743L5.71225 8.35952C5.70886 8.35644 5.70683 8.35215 5.70659 8.34758C5.70636 8.343 5.70794 8.33852 5.711 8.33512L5.99178 8.0243C5.99486 8.02091 5.99917 8.01888 6.00374 8.01865C6.00832 8.01842 6.01281 8.02002 6.01621 8.02309L7.4969 9.36112C7.49865 9.36257 7.50006 9.36438 7.50105 9.36642C7.50204 9.36846 7.50259 9.37069 7.50265 9.37296C7.50283 9.37524 7.50252 9.37753 7.50174 9.37967C7.50096 9.38182 7.49972 9.38377 7.49812 9.3854Z" fill="#108F1E"/>
<path d="M1.05341 5.15327C1.66269 5.64621 2.48434 5.85068 3.30759 5.71443C3.64463 5.65852 3.994 5.7734 4.24203 6.02146L5.33981 7.11912C5.36153 7.14091 5.38735 7.15819 5.41577 7.16996C5.4442 7.18173 5.47467 7.18777 5.50544 7.18771C5.5518 7.1877 5.59711 7.17395 5.63565 7.14819C5.67419 7.12244 5.70424 7.08583 5.72198 7.043C5.73972 7.00018 5.74437 6.95305 5.73533 6.90758C5.7263 6.86211 5.70399 6.82035 5.67122 6.78756L4.57356 5.6899C4.21872 5.33518 3.71688 5.17146 3.23106 5.25193C2.53975 5.36643 1.8535 5.19759 1.34825 4.78881C0.771813 4.32246 0.448219 3.61299 0.469688 2.87424L1.88313 4.01777C2.27769 4.33699 2.85825 4.27571 3.17719 3.88121L3.82653 3.07884C3.98109 2.88765 4.052 2.6479 4.02622 2.40352C4.0005 2.15902 3.88097 1.93931 3.68997 1.78477L2.27631 0.641056C3.02788 0.457087 3.81563 0.647275 4.40216 1.15937C4.91791 1.60968 5.19731 2.29621 5.16863 3.0429C5.15166 3.48712 5.31744 3.9174 5.62347 4.22356L7.05659 5.65668C7.10056 5.70059 7.16016 5.72525 7.2223 5.72525C7.28443 5.72525 7.34403 5.70059 7.388 5.65668C7.40977 5.63491 7.42704 5.60907 7.43883 5.58062C7.45061 5.55218 7.45667 5.52169 7.45667 5.4909C7.45667 5.46011 7.45061 5.42962 7.43883 5.40118C7.42704 5.37273 7.40977 5.34689 7.388 5.32512L5.95488 3.89215C5.74091 3.67802 5.62506 3.37506 5.63716 3.06084C5.67122 2.17193 5.33341 1.35015 4.71038 0.806212C3.97703 0.165993 2.98081 -0.0541004 2.04563 0.217743C1.97272 0.238795 1.90701 0.27949 1.85568 0.335377C1.80435 0.391265 1.76938 0.460191 1.75459 0.534618C1.73943 0.609102 1.74503 0.686321 1.77078 0.757839C1.79653 0.829356 1.84143 0.892423 1.90059 0.94015L3.39497 2.14915C3.44119 2.18632 3.47958 2.23229 3.50791 2.28439C3.53625 2.3365 3.55396 2.39371 3.56003 2.45271C3.56644 2.51168 3.56107 2.57133 3.54424 2.6282C3.52741 2.68507 3.49946 2.73804 3.462 2.78402L2.81284 3.58652C2.65622 3.77987 2.37156 3.81002 2.17806 3.6534L0.683813 2.44446C0.624721 2.39654 0.553603 2.36576 0.478217 2.35549C0.402831 2.34522 0.326072 2.35584 0.256313 2.38621C0.186748 2.4162 0.126758 2.46473 0.0828912 2.52649C0.0390246 2.58825 0.012967 2.66087 0.00756265 2.73643C-0.0602186 3.66518 0.330781 4.56862 1.05344 5.15331L1.05341 5.15327ZM15.6028 13.5399L9.93772 7.87487C9.89347 7.8323 9.83429 7.80878 9.77289 7.80938C9.71149 7.80998 9.65277 7.83465 9.60937 7.87808C9.56596 7.92151 9.54132 7.98023 9.54075 8.04163C9.54018 8.10303 9.56372 8.1622 9.60631 8.20643L15.2713 13.8713C15.6181 14.2182 15.6181 14.7827 15.2713 15.1295C14.9244 15.4763 14.3601 15.4765 14.0134 15.1296L8.67278 9.78915C8.65101 9.76738 8.62517 9.75011 8.59672 9.73832C8.56828 9.72654 8.53779 9.72048 8.507 9.72048C8.47621 9.72048 8.44572 9.72654 8.41728 9.73832C8.38883 9.75011 8.36299 9.76738 8.34122 9.78915C8.29731 9.83312 8.27265 9.89271 8.27265 9.95485C8.27265 10.017 8.29731 10.0766 8.34122 10.1206L13.6818 15.4611C13.9466 15.7259 14.2943 15.8582 14.6422 15.8582C14.9899 15.8582 15.3379 15.7258 15.6027 15.4609C16.1322 14.9314 16.1322 14.0696 15.6027 13.5399H15.6028Z" fill="#108F1E"/>
</g>
<defs>
<clipPath id="clip0_7643_39663">
<rect width="16" height="16" fill="white"/>
</clipPath>
</defs>
</svg>
