<svg width="20" height="20" viewBox="0 0 20 20" fill="none" xmlns="http://www.w3.org/2000/svg">
<path d="M2.5 17V3C2.5 2.72386 2.72386 2.5 3 2.5H17C17.2761 2.5 17.5 2.72386 17.5 3V17C17.5 17.2761 17.2761 17.5 17 17.5H3C2.72386 17.5 2.5 17.2761 2.5 17Z" stroke="#108F1E" stroke-width="1.25"/>
<path d="M12.5 7.08301C11.9292 6.51218 10.9239 6.11514 10 6.09027M7.5 12.4997C8.03707 13.2158 9.03564 13.6242 10 13.6588M10 6.09027C8.90073 6.06069 7.91667 6.55799 7.91667 7.91635C7.91667 10.4163 12.5 9.16635 12.5 11.6663C12.5 13.0922 11.2801 13.7048 10 13.6588M10 6.09027V4.58301M10 13.6588V15.4163" stroke="#108F1E" stroke-width="1.25" stroke-linecap="round" stroke-linejoin="round"/>
</svg>
